<?xml version="1.0" encoding="utf-8"?>
<!-- Generator: Adobe Illustrator 16.0.0, SVG Export Plug-In . SVG Version: 6.00 Build 0)  -->
<!DOCTYPE svg PUBLIC "-//W3C//DTD SVG 1.1//EN" "http://www.w3.org/Graphics/SVG/1.1/DTD/svg11.dtd">
<svg version="1.1" xmlns="http://www.w3.org/2000/svg" xmlns:xlink="http://www.w3.org/1999/xlink" x="0px" y="0px" width="2000px"
	 height="1283px" viewBox="0 0 2000 1283" enable-background="new 0 0 2000 1283" xml:space="preserve">
<g id="BACKGROUND">
	<rect fill="#FFFFFF" width="2000" height="1283"/>
	<rect y="-6" fill="#FFFFFF" width="2000" height="1289"/>
	<rect y="-6" fill="#49B753" width="2000" height="1289"/>
</g>
<g id="OBJECT">
	<g>
		<defs>
			<rect id="SVGID_1_" y="-6" width="2000" height="1289"/>
		</defs>
		<clipPath id="SVGID_2_">
			<use xlink:href="#SVGID_1_"  overflow="visible"/>
		</clipPath>
		<g clip-path="url(#SVGID_2_)">
			<polygon fill="#1C9EF5" points="57,85 75.667,115 -3,115 -3,85 			"/>
			<g>
				<polygon fill="#FFFFFF" points="1632,1039 1632,1060 1542,1060 1586.807,1039 				"/>
				<polygon fill="#FFFFFF" points="1734,1037 1734,1060 1708.613,1060 1721.113,1037 				"/>
				<polygon fill="#FFFFFF" points="1931,1037 1931,1060 1955.613,1060 1943.113,1037 				"/>
				<rect x="1632" y="861" fill="none" stroke="#FFFFFF" stroke-width="2" stroke-miterlimit="10" width="66" height="436"/>
				<rect x="698" y="861" fill="none" stroke="#FFFFFF" stroke-width="2" stroke-miterlimit="10" width="66" height="436"/>
				<polygon fill="#FFFFFF" points="764,1040 764,1061 853.614,1061 808.807,1040 				"/>
				<path fill="#FFFFFF" d="M761.487,1284c489.243-168,867.716,0,867.716,0H761.487z"/>
				<rect x="764" y="1040" fill="none" stroke="#FFFFFF" stroke-width="2" stroke-miterlimit="10" width="868" height="20"/>
				<g>
					<circle fill="none" stroke="#FFFFFF" stroke-width="2" stroke-miterlimit="10" cx="1665.284" cy="917.705" r="11.395"/>
					<circle fill="none" stroke="#FFFFFF" stroke-width="2" stroke-miterlimit="10" cx="1665.284" cy="1033.009" r="11.395"/>
				</g>
				<polygon fill="#FFFFFF" points="659,1037 659,1060 684,1060 671.5,1037 				"/>
				<polygon fill="#FFFFFF" points="462,1037 462,1060 437,1060 449.5,1037 				"/>
				<g>
					<circle fill="none" stroke="#FFFFFF" stroke-width="2" stroke-miterlimit="10" cx="730.954" cy="917.705" r="11.394"/>
					<circle fill="none" stroke="#FFFFFF" stroke-width="2" stroke-miterlimit="10" cx="730.954" cy="1033.009" r="11.394"/>
				</g>
				<g>
					<path fill="none" stroke="#FFFFFF" stroke-width="2" stroke-miterlimit="10" d="M658,1189.019
						c0,6.065-4.917,10.981-10.981,10.981h-37.038c-6.064,0-10.981-4.916-10.981-10.981V889.981c0-6.064,4.917-10.981,10.981-10.981
						h37.038c6.064,0,10.981,4.917,10.981,10.981V1189.019z"/>
					<path fill="none" stroke="#FFFFFF" stroke-width="2" stroke-miterlimit="10" d="M587,1183.407
						c0,5.851-4.743,10.593-10.594,10.593h-36.812c-5.851,0-10.594-4.742-10.594-10.593V894.593c0-5.851,4.743-10.593,10.594-10.593
						h36.812c5.851,0,10.594,4.742,10.594,10.593V1183.407z"/>
					<path fill="none" stroke="#FFFFFF" stroke-width="2" stroke-miterlimit="10" d="M516,1149.967c0,4.43-4.128,8.033-9.506,8.033
						h-33.84c-5.377,0-9.654-3.604-9.654-8.033V930.825c0-4.43,4.276-7.825,9.654-7.825h33.84c5.377,0,9.506,3.396,9.506,7.825
						V1149.967z"/>
					<path fill="none" stroke="#FFFFFF" stroke-width="2" stroke-miterlimit="10" d="M516.426,930.825c0,0-47.892,105.844,0,219.142
						"/>
					<path fill="none" stroke="#FFFFFF" stroke-width="2" stroke-miterlimit="10" d="M586.89,894.963c0,0-45.756,155.817,0,289.036"
						/>
					<path fill="none" stroke="#FFFFFF" stroke-width="2" stroke-miterlimit="10" d="M658.269,889.859c0,0-50.331,171.127,0,299.242
						"/>
					<rect x="659" y="1037" fill="none" stroke="#FFFFFF" stroke-width="2" stroke-miterlimit="10" width="39" height="23"/>
					<rect x="425" y="1037" fill="none" stroke="#FFFFFF" stroke-width="2" stroke-miterlimit="10" width="37" height="23"/>
				</g>
				<g>
					<path fill="none" stroke="#FFFFFF" stroke-width="2" stroke-miterlimit="10" d="M1794,889.981
						c0-6.064-4.916-10.981-10.981-10.981h-37.037c-6.065,0-10.981,4.917-10.981,10.981v299.037c0,6.065,4.916,10.981,10.981,10.981
						h37.037c6.065,0,10.981-4.916,10.981-10.981V889.981z"/>
					<path fill="none" stroke="#FFFFFF" stroke-width="2" stroke-miterlimit="10" d="M1865,894.593
						c0-5.851-4.743-10.593-10.595-10.593h-36.811c-5.852,0-10.595,4.742-10.595,10.593v288.814c0,5.851,4.743,10.593,10.595,10.593
						h36.811c5.852,0,10.595-4.742,10.595-10.593V894.593z"/>
					<path fill="none" stroke="#FFFFFF" stroke-width="2" stroke-miterlimit="10" d="M1877,1149.967
						c0,4.43,4.754,8.033,10.131,8.033h33.841c5.377,0,9.028-3.604,9.028-8.033V930.825c0-4.43-3.651-7.825-9.028-7.825h-33.841
						c-5.377,0-10.131,3.396-10.131,7.825V1149.967z"/>
					<path fill="none" stroke="#FFFFFF" stroke-width="2" stroke-miterlimit="10" d="M1877.199,930.825
						c0,0,47.893,105.844,0,219.142"/>
					<path fill="none" stroke="#FFFFFF" stroke-width="2" stroke-miterlimit="10" d="M1806.735,894.963
						c0,0,45.755,155.817,0,289.036"/>
					<path fill="none" stroke="#FFFFFF" stroke-width="2" stroke-miterlimit="10" d="M1735.356,889.859
						c0,0,50.331,171.127,0,299.242"/>
					<rect x="1698" y="1037" fill="none" stroke="#FFFFFF" stroke-width="2" stroke-miterlimit="10" width="36" height="23"/>
					<rect x="1930" y="1037" fill="none" stroke="#FFFFFF" stroke-width="2" stroke-miterlimit="10" width="39" height="23"/>
				</g>
			</g>
			<polyline fill="none" stroke="#FFFFFF" stroke-width="2" stroke-miterlimit="10" points="0,115 244,115 244,202.359 265,202.326 
				265,115 265,85 0,85 			"/>
			<path fill="#FFFFFF" d="M248.91,1008.78c-82.98-1.34-87.11-112.311-87.11-112.311L160.89,794l-1.67-187.09l-1.57-175.74
				c0,0,5.42-113.62,92.17-112.38c86.75,1.25,97.02,103.54,97.02,103.54l2.54,93.82l5.21,191.99l5.2,191.67
				C359.79,899.81,377.94,1010.87,248.91,1008.78z"/>
			<line fill="none" stroke="#FFFFFF" stroke-width="2" stroke-miterlimit="10" x1="254" y1="202" x2="254" y2="350"/>
			<line fill="none" stroke="#FFFFFF" stroke-width="2" stroke-miterlimit="10" x1="244" y1="202.359" x2="211.13" y2="351.479"/>
			<line fill="none" stroke="#FFFFFF" stroke-width="2" stroke-miterlimit="10" x1="265" y1="202.326" x2="296.625" y2="349.522"/>
			<path fill="none" stroke="#020202" stroke-width="2" stroke-miterlimit="10" d="M157.862,455c0,0,137.112,31.348,189.504-13.432"
				/>
			<path fill="none" stroke="#020202" stroke-width="2" stroke-miterlimit="10" d="M161.603,874.081
				c0,0,141.975,23.605,199.066-7.821"/>
			<line fill="none" stroke="#020202" stroke-width="2" stroke-miterlimit="10" x1="354.59" y1="708.14" x2="160.89" y2="794"/>
			<line fill="none" stroke="#020202" stroke-width="2" stroke-miterlimit="10" x1="159.22" y1="606.91" x2="349.38" y2="516.15"/>
			<polyline fill="none" stroke="#020202" stroke-width="2" stroke-miterlimit="10" points="173.633,868.543 182.633,887.951 
				206.132,868.543 227.565,887.951 248,868.93 267,887.951 286.812,868.93 307.127,887.342 327.626,864.164 347.367,882.462 			"/>
			<polyline fill="none" stroke="#020202" stroke-width="2" stroke-miterlimit="10" points="180.495,454.669 188.161,470.169 
				208.178,454.669 226.436,470.169 243.843,454.979 260.027,470.169 276.904,454.979 294.209,469.682 311.671,451.173 
				328.487,465.785 			"/>
			<ellipse fill="#1C9EF5" cx="262.095" cy="987.851" rx="34.53" ry="11.274"/>
			<polygon fill="#FA0C2B" points="186,652.955 186,699 324,655 320,606.91 			"/>
			<g>
				<path fill="none" stroke="#FFFFFF" stroke-width="2" stroke-miterlimit="10" d="M1203-7v135.28
					c-5.57-1.23-11.35-1.88-17.29-1.88c-8.26,0-16.22,1.25-23.71,3.57V-7H1203z"/>
				<path fill="none" stroke="#FFFFFF" stroke-width="2" stroke-miterlimit="10" d="M1185.71,145c6,0,11.81,0.86,17.29,2.47V156h-41
					v-6.26C1169.3,146.69,1177.31,145,1185.71,145z"/>
				<path fill="#FFFFFF" d="M1216.21,132.42c-4.229-1.75-8.65-3.14-13.21-4.14v19.19c8.03,2.35,15.38,6.29,21.68,11.46
					c13.73,11.27,22.49,28.37,22.49,47.52c0,33.94-27.52,61.45-61.46,61.45c-33.93,0-61.45-27.51-61.45-61.45
					c0-25.54,15.58-47.43,37.74-56.71v-19.77c-32.63,10.11-56.33,40.53-56.33,76.48c0,44.21,35.83,80.05,80.04,80.05
					s80.05-35.84,80.05-80.05C1265.76,173.04,1245.29,144.41,1216.21,132.42z"/>
				<path fill="#133956" d="M1224.68,158.93c-6.3-5.17-13.649-9.11-21.68-11.46v-19.19c4.56,1,8.98,2.39,13.21,4.14L1224.68,158.93z
					"/>
			</g>
			<g>
				<path fill="none" stroke="#FFFFFF" stroke-width="2" stroke-miterlimit="10" d="M1394-7v135.28
					c-5.57-1.23-11.35-1.88-17.29-1.88c-8.26,0-16.22,1.25-23.71,3.57V-7H1394z"/>
				<path fill="none" stroke="#FFFFFF" stroke-width="2" stroke-miterlimit="10" d="M1376.71,145c6,0,11.81,0.86,17.29,2.47V156h-41
					v-6.26C1360.3,146.69,1368.31,145,1376.71,145z"/>
				<path fill="#FFFFFF" d="M1407.21,132.42c-4.229-1.75-8.65-3.14-13.21-4.14v19.19c8.03,2.35,15.38,6.29,21.68,11.46
					c13.73,11.27,22.49,28.37,22.49,47.52c0,33.94-27.52,61.45-61.46,61.45c-33.93,0-61.45-27.51-61.45-61.45
					c0-25.54,15.58-47.43,37.74-56.71v-19.77c-32.63,10.11-56.33,40.53-56.33,76.48c0,44.21,35.83,80.05,80.04,80.05
					s80.05-35.84,80.05-80.05C1456.76,173.04,1436.29,144.41,1407.21,132.42z"/>
				<path fill="#133956" d="M1415.68,158.93c-6.3-5.17-13.649-9.11-21.68-11.46v-19.19c4.56,1,8.98,2.39,13.21,4.14L1415.68,158.93z
					"/>
			</g>
		</g>
	</g>
	<g>
		<g>
			<g>
				<path fill="#1C9EF5" d="M1284.231,476.102c3.462,22.077,6.085,44.634-21.869,44.388c-15.729-0.139-30.944-13.485-34.407-35.562
					c-3.462-22.078,6.344-41.859,21.87-44.387C1279.858,435.648,1280.771,454.024,1284.231,476.102z"/>
				
					<ellipse transform="matrix(0.9879 -0.1549 0.1549 0.9879 -59.1541 202.0339)" fill="#133956" cx="1266.551" cy="480.514" rx="28.482" ry="40.463"/>
			</g>
			<g>
				<path fill="#1C9EF5" d="M1324.648,469.673c4.583,29.225,8.055,59.083-28.949,58.757c-20.822-0.183-40.963-17.85-45.546-47.075
					s8.397-55.41,28.949-58.757C1318.859,416.123,1320.066,440.449,1324.648,469.673z"/>
				
					<ellipse transform="matrix(0.9879 -0.1549 0.1549 0.9879 -57.9591 207.3411)" fill="#133956" cx="1301.244" cy="475.515" rx="37.703" ry="53.563"/>
			</g>
			<g>
				<path fill="#1C9EF5" d="M1380.945,461.498c6.29,40.111,11.055,81.092-39.733,80.645c-28.578-0.251-56.222-24.5-62.512-64.61
					s11.525-76.05,39.732-80.645C1373,388,1374.655,421.387,1380.945,461.498z"/>
				
					<ellipse transform="matrix(0.9879 -0.1549 0.1549 0.9879 -56.455 214.6387)" fill="#133956" cx="1348.823" cy="469.515" rx="51.747" ry="73.515"/>
			</g>
			<polygon fill="#FA0C2B" points="1362,458 1362,469 1422,452 1422,441 			"/>
		</g>
		<g>
			<g>
				<path fill="#1C9EF5" d="M778.43,385.153c-9.498,20.228-18.325,41.151,8.583,48.732c15.141,4.266,33.481-4.293,42.98-24.521
					c9.498-20.229,5.616-41.963-8.584-48.732C793.941,347.537,787.927,364.925,778.43,385.153z"/>
				
					<ellipse transform="matrix(-0.9052 -0.425 0.425 -0.9052 1345.4258 1088.8289)" fill="#133956" cx="794.17" cy="394.334" rx="28.482" ry="40.463"/>
			</g>
			<g>
				<path fill="#1C9EF5" d="M741.423,367.678c-12.573,26.777-24.257,54.473,11.362,64.509c20.042,5.647,44.32-5.682,56.894-32.458
					c12.573-26.777,7.434-55.548-11.361-64.509C761.957,317.884,753.995,340.901,741.423,367.678z"/>
				
					<ellipse transform="matrix(-0.9052 -0.425 0.425 -0.9052 1290.7997 1047.6329)" fill="#133956" cx="762.26" cy="379.832" rx="37.703" ry="53.563"/>
			</g>
			<g>
				<path fill="#1C9EF5" d="M689.659,344.085c-17.257,36.751-33.292,74.764,15.594,88.539c27.508,7.751,60.83-7.799,78.086-44.55
					c17.257-36.751,10.203-76.239-15.593-88.539C717.842,275.742,706.916,307.333,689.659,344.085z"/>
				
					<ellipse transform="matrix(-0.9052 -0.425 0.425 -0.9052 1215.0734 992.6041)" fill="#133956" cx="718.258" cy="360.766" rx="51.747" ry="73.515"/>
			</g>
			<polygon fill="#FA0C2B" points="708.577,345.952 705.501,356.513 652.649,323.412 655.726,312.851 			"/>
		</g>
		<g>
			<path fill="#F6B5BF" d="M1499.074,490.789c22.013,61.032,38.928,263.732,18.915,277.13
				c-152.488,102.079-465.068,40.564-465.068,40.564s110.997-163.188,151.047-170.467c35.449-6.442,93.357,1.361,128.106,7.417
				c26.502,4.635,90.253,39.523,90.253,39.523c-6.627-36.511,18.703-157.703,25.235-162.674c0,0,1.536-20.31-2.372-31.133
				c-3.909-10.824-19.984-13.783-22.323-23.359s-11.611-24.014-11.611-24.014s-0.512-2.946,1.729-5.635
				c2.24-2.689,6.327-6.433,6.327-6.433s-2.326-5.606,0.237-10.325c2.564-4.719,10.626-8.952,15.891-9.802
				c5.266-0.851,15.433-4.645,20.46-6.871s13.317-5.145,17.638,0.258C1477.858,410.373,1495.16,478.289,1499.074,490.789z"/>
		</g>
		<g>
			<path fill="#F6B5BF" d="M619.146,393c-4.963,6.539-25.433,127.615-47.104,157.737c0,0,64.029-3.546,90.488,1.323
				c70.97,13.06,105.432,41.472,126.857,50.105c37.757,15.212,63.155,218.829,63.155,218.829S543.854,742.243,450.015,584.55
				c-12.315-20.696,90.048-196.466,136.147-242.12c0,0,13.838-24.43,17.838-33.43s13-22,13-22l33.769-10c0,0,12.231,0,18.231,6
				s10,22,10,22s9-3,9,1s4,10-2,17s-16,24-30,27S631.291,376.999,619.146,393z"/>
		</g>
		<polygon fill="#FA0C2B" points="835.748,1283 1121.398,1283 1106.238,1141 1007.469,1133.83 858.238,1123 854.519,1149.44 		"/>
		<path fill="#F6B5BF" d="M1224.89,846.95c-1.87,13.85-5.239,27.92-9.6,41.81c-2.9,9.24-6.24,18.41-9.87,27.4
			c-8.37,20.729-18.3,40.49-28,57.979c-6.33,11.45-12.57,21.92-18.2,31.04c-10.72,17.38-19.22,29.84-21.979,34.82
			c-2.45,4.42-5.57,12.75-8.88,22.81c-0.44,1.341-0.88,2.71-1.33,4.11c-0.391,1.22-0.78,2.47-1.17,3.73
			c-2.74,8.76-5.53,18.319-8.11,27.47c-6.39,22.649-11.51,42.88-11.51,42.88s-9,0-37,0c-27.851,0-209.1-17.81-210.99-18
			c-0.01,0-0.01,0-0.01,0s0,0,0.05-1.31c0.01-0.12,0.01-0.261,0.02-0.41c0-0.141,0.01-0.29,0.01-0.45c0.02-0.3,0.03-0.64,0.04-1.03
			c0.01-0.26,0.02-0.54,0.03-0.85c0.01-0.181,0.02-0.38,0.02-0.58c0.02-0.32,0.03-0.66,0.04-1.021c0.01-0.1,0.01-0.199,0.01-0.3
			c0.02-0.39,0.03-0.81,0.05-1.25c0.02-0.45,0.03-0.92,0.05-1.42c0.01-0.25,0.02-0.51,0.03-0.77c0.01-0.16,0.01-0.32,0.02-0.49
			c0.01-0.26,0.02-0.53,0.03-0.811c0.01-0.18,0.01-0.369,0.02-0.56c0.02-0.37,0.03-0.75,0.04-1.15c0.01-0.369,0.03-0.739,0.05-1.13
			c0.04-1.069,0.08-2.229,0.12-3.479c0.03-0.62,0.05-1.271,0.08-1.94c0.03-1.01,0.07-2.06,0.11-3.18c0.02-0.41,0.03-0.82,0.05-1.25
			c0.04-1.11,0.08-2.28,0.13-3.5c0.04-1,0.01-2.21-0.06-3.601c-0.04-0.729-0.205-1.51-0.275-2.329
			c-0.17-2.061,0.095-4.431-0.905-7.08v-0.04c0-0.53-0.035-1.07-0.115-1.63c-0.65-4.61-1.467-9.971-2.558-15.94
			c-0.489-2.67-0.983-5.47-1.534-8.37c-0.28-1.439-0.547-2.91-0.847-4.399c-0.15-0.75-0.293-1.511-0.444-2.271
			c-0.55-2.82-1.136-5.729-1.756-8.71c-0.61-2.97-1.248-6.01-1.918-9.12c-1.99-9.34-4.189-19.27-6.53-29.5
			c-0.28-1.24-0.569-2.49-0.859-3.75c-0.57-2.49-1.149-4.99-1.739-7.51c-0.591-2.521-1.18-5.061-1.78-7.601
			c-2.96-12.489-6.04-25.18-9.14-37.59c-5.09-20.41-10.22-40.109-14.86-57.01c-1.9-6.91-3.71-13.37-5.41-19.22
			c-1.88-6.48-3.61-12.21-5.15-17c-0.38-1.21-0.76-2.36-1.12-3.45c-4.47-13.42-10.43-37.7-16.37-65.96
			c-2.15-10.3-4.31-21.13-6.4-32.15c-4.79-25.34-9.18-51.709-12.28-75.07c-1.53-11.5-2.74-22.27-3.54-31.82
			c-1.86-22.33-1.45-38.04,2.59-41c10.06-7.38,84.03-10.26,131.63-11.35c23.36-0.54,40.37-0.65,40.37-0.65s2.44-0.1,6.61-0.21
			c18.43-0.49,70.6-1.13,94.06,6.21c15.56,4.87,59.47,15.3,97.92,24.89c14.67,3.65,28.54,7.18,39.74,10.22
			c13.699,3.74,23.399,6.75,25.67,8.39c0,0,3.21,14.37,7.38,37.92c1.47,8.32,3.06,17.78,4.67,28.15
			c3.51,22.68,7.12,49.729,9.77,78.75c0.83,9.06,1.57,18.31,2.181,27.68c0,0.08,0.01,0.15,0.01,0.23
			C1226.93,824.88,1226.39,835.85,1224.89,846.95z"/>
		<polygon fill="#020202" points="1015.592,574.995 1010.424,545.065 1028.089,551.807 		"/>
		<path fill="#F6B5BF" d="M1081.66,510.528c0,0,4.021,73.604-13.812,81.07s-19.194-0.189-21.842,12.358
			c-2.647,12.547,23.602,20.424,27.068,28.169c3.467,7.745-42.56,32.993-68.916,2.955c-26.355-30.037-22.994-41.453-22.994-41.453
			l25.717,2.533l13.286-44.166c0,0-14.506-1.254-14.53-10.54c-0.023-9.286,15.213-12.748,15.213-12.748s7.459-48.529,32.792-43.857
			C1078.974,489.523,1081.66,510.528,1081.66,510.528z"/>
		<path fill="#020202" d="M1085.456,513.938c0,0,14.926-14.703,0.901-33.821s-65.176-9.912-75.934-21.848c0,0-2.575,12.042,0,16.72
			s-1.531,31.678-1.145,36.511s-0.026,22.8-0.026,22.8S1050.809,511.5,1085.456,513.938z"/>
		<path fill="none" stroke="#020202" stroke-width="2" stroke-miterlimit="10" d="M1067.611,542.272c0,0,6.173,13.594-0.266,12.742
			c-6.439-0.852-6.439-0.852-6.439-0.852"/>
		<path fill="none" stroke="#020202" stroke-width="2" stroke-miterlimit="10" d="M1069.683,568.193c0,0-14.405,11.205-17.12-6.533"
			/>
		<polygon fill="#020202" points="854.519,1149.44 1030.349,1138.65 1007.469,1133.83 858.238,1123 		"/>
		<path fill="none" stroke="#020202" stroke-width="2" stroke-miterlimit="10" d="M1006.059,1222c0,0-29.15,29-27.485,61"/>
		<path fill="none" stroke="#020202" stroke-width="2" stroke-miterlimit="10" d="M1226.014,836.478
			c0,0,13.506-59.56-13.254-138.519"/>
		<path fill="none" stroke="#020202" stroke-width="2" stroke-miterlimit="10" d="M783.348,599.417c0,0,20.085,8.583,31.369,42.083"
			/>
		<path fill="none" stroke="#020202" stroke-width="2" stroke-miterlimit="10" d="M1422.327,684.957c0,0,20.396,10.288,26.73,23.398
			"/>
		<path fill="#FFFFFF" d="M1008.424,495c0,0,52.291,14.436,77.934,15.218L1082.049,528c0,0-64.055-3-72.552-20.5L1008.424,495z"/>
		<path fill="#FA0C2B" d="M1224.89,846.95c-1.87,13.85-5.239,27.92-9.6,41.81c-2.9,9.24-6.24,18.41-9.87,27.4
			c-8.37,20.729-18.3,40.49-28,57.979c-6.33,11.45-12.57,21.92-18.2,31.04c-10.72,17.38-19.22,29.84-21.979,34.82
			c-2.45,4.42-5.57,12.75-8.88,22.81c-0.44,1.341-0.88,2.71-1.33,4.11c-0.391,1.22-0.78,2.47-1.17,3.73
			c-2.74,8.85-5.53,18.81-8.11,27.97c-6.39,22.649-11.51,43.38-11.51,43.38s-9,0-37,0s-211-18.5-211-18.5s0-0.135,0.01-0.375
			c0.01-0.21,0.02-0.662,0.04-1.372c0.01-0.12,0.01-0.292,0.02-0.441c0-0.141,0.01-0.306,0.01-0.466c0.02-0.3,0.03-0.647,0.04-1.038
			c0.01-0.26,0.02-0.544,0.03-0.854c0.01-0.181,0.02-0.382,0.02-0.582c0.02-0.32,0.03-0.661,0.04-1.021c0.01-0.1,0.01-0.2,0.01-0.3
			c0.02-0.391,0.03-0.811,0.05-1.251c0.02-0.45,0.03-0.92,0.05-1.42c0.01-0.25,0.02-0.51,0.03-0.77c0.01-0.16,0.01-0.32,0.02-0.49
			c0.01-0.26,0.02-0.53,0.03-0.811c0.01-0.18,0.01-0.369,0.02-0.56c0.02-0.37,0.03-0.75,0.04-1.15c0.02-0.359,0.04-0.739,0.05-1.13
			c0.04-1.069,0.08-2.229,0.12-3.479c0.03-0.62,0.05-1.271,0.08-1.94c0.03-1.01,0.07-2.06,0.11-3.18c0.02-0.41,0.03-0.82,0.05-1.25
			c0.04-1.11,0.08-2.28,0.13-3.5c0.04-1,0.01-2.21-0.06-3.601c-0.04-0.729-0.205-1.51-0.275-2.329c-0.18-2.07-0.905-4.44-0.905-7.08
			v-0.04c0-0.511-0.045-1.04-0.115-1.57c-0.65-4.62-1.478-10-2.558-16c-0.489-2.67-0.983-5.47-1.534-8.37
			c-0.28-1.439-0.547-2.91-0.847-4.399c-0.15-0.75-0.293-1.511-0.444-2.271c-0.56-2.81-1.146-5.71-1.756-8.68
			c-0.61-2.98-1.248-6.03-1.918-9.15c-1.99-9.34-4.189-19.27-6.53-29.5c-0.28-1.24-0.569-2.49-0.859-3.75
			c-0.57-2.49-1.15-4.99-1.74-7.51c-0.59-2.521-1.18-5.061-1.78-7.601c-2.96-12.489-6.04-25.18-9.14-37.59
			c-5.09-20.41-10.22-40.109-14.86-57.01c-1.9-6.91-3.71-13.37-5.41-19.22c19.21,5.46,40.24,5.74,64.07-4.44
			c56.69-24.21,34-213.42,25.29-273.36c23.36-0.54,40.37-0.65,40.37-0.65s2.44-0.1,6.61-0.21c8.14,51.06,39,198.12,125.43,205.56
			c79.41,6.83,73.859-115.169,66.55-174.459c14.67,3.65,28.54,7.18,39.74,10.22c5.5,23.13,11.819,57.34,17.01,106.07
			C1199.81,797.67,1213.34,829.69,1224.89,846.95z"/>
		<polygon fill="#FA0C2B" points="1467,426 1467,436 1534,426 1534,413 		"/>
		<path fill="none" stroke="#FFFFFF" stroke-width="2" stroke-miterlimit="10" d="M1031.537,898.08c0,0-30.13,23.999-64.537,20.999
			s-67.406,0.26-67.406,0.26"/>
		<path fill="none" stroke="#FFFFFF" stroke-width="2" stroke-miterlimit="10" d="M1082.049,874.081c0,0,7.833,46.497,43.933,53.997
			s36.1,7.5,36.1,7.5"/>
		<path fill="none" stroke="#020202" stroke-width="2" stroke-miterlimit="10" d="M1070.28,797.35c0,0-6.308-32.763,0-53.762"/>
		<path fill="none" stroke="#020202" stroke-width="2" stroke-miterlimit="10" d="M1047.391,752.588c0,0-1.235,28.968-3.268,37.732"
			/>
		<g>
			<g>
				<path fill="#1C9EF5" d="M1593.447,418.626c4.344,40.368,7.123,81.531-43.584,78.63c-28.532-1.632-54.973-27.188-59.316-67.556
					c-4.345-40.368,15.187-75.404,43.583-78.63C1589.062,344.83,1589.103,378.258,1593.447,418.626z"/>
				
					<ellipse transform="matrix(0.9943 -0.107 0.107 0.9943 -36.525 169.4827)" fill="#133956" cx="1560.975" cy="425.081" rx="51.748" ry="73.515"/>
			</g>
			<g>
				<path fill="#1C9EF5" d="M1613.821,417.071c3.165,29.412,5.19,59.404-31.755,57.29c-20.789-1.189-40.053-19.809-43.218-49.221
					c-3.166-29.412,11.064-54.939,31.755-57.289C1610.626,363.303,1610.656,387.659,1613.821,417.071z"/>
				
					<ellipse transform="matrix(0.9943 -0.107 0.107 0.9943 -36.0002 172.5658)" fill="#133956" cx="1590.163" cy="421.774" rx="37.703" ry="53.562"/>
			</g>
			<g>
				<path fill="#1C9EF5" d="M1634.343,415.595c0.415,22.343-0.066,45.047-27.725,40.986c-15.563-2.285-28.813-17.583-29.229-39.927
					c-0.416-22.343,11.999-40.601,27.726-40.985C1635.534,374.923,1633.928,393.252,1634.343,415.595z"/>
				
					<ellipse transform="matrix(0.9998 -0.0186 0.0186 0.9998 -7.4836 30.1208)" fill="#133956" cx="1616.226" cy="417.553" rx="28.482" ry="40.463"/>
			</g>
		</g>
		<path fill="none" stroke="#020202" stroke-width="2" stroke-miterlimit="10" d="M1419.312,431.709c0,0,22.688-8.547,24.688-6.628
			s-12.344,14.663-12.344,14.663L1434,443.5c0,0,17,4.539,21,14.77"/>
		<path fill="none" stroke="#020202" stroke-width="2" stroke-miterlimit="10" d="M1467,421v5v10h9c0,0-4.5,6.07-12,5.535
			s-9.899-2.698-9-19.761"/>
		<path fill="none" stroke="#020202" stroke-width="2" stroke-miterlimit="10" d="M1444,425v16c0,0,6.309,7,16.404,0"/>
		<polygon fill="#FA0C2B" points="1445,491 1445,521 1508.92,509 1497,475.515 		"/>
		<g>
			<polygon fill="#FA0C2B" points="615.221,299.382 613.035,309.14 549.842,284.731 552.685,272.046 			"/>
			<g>
				<g>
					<path fill="#1C9EF5" d="M493.446,264.538c-13.065,38.441-24.778,78,25.337,86.257c28.198,4.646,59.586-14.51,72.651-52.952
						c13.066-38.44,1.67-76.9-25.335-86.257C513.862,193.486,506.513,226.096,493.446,264.538z"/>
					
						<ellipse transform="matrix(-0.9468 -0.3218 0.3218 -0.9468 930.1317 709.6354)" fill="#133956" cx="523.722" cy="277.937" rx="51.747" ry="73.516"/>
				</g>
				<g>
					<path fill="#1C9EF5" d="M473.905,258.565c-9.518,28.008-18.053,56.832,18.459,62.847c20.547,3.385,43.416-10.571,52.935-38.581
						c9.521-28.007,1.218-56.028-18.459-62.846C488.78,206.797,483.424,230.557,473.905,258.565z"/>
					
						<ellipse transform="matrix(-0.9468 -0.3218 0.3218 -0.9468 879.1942 681.9868)" fill="#133956" cx="495.963" cy="268.328" rx="37.703" ry="53.562"/>
				</g>
				<g>
					<path fill="#1C9EF5" d="M454.203,252.638c-5.292,21.712-9.785,43.971,18.091,46.056c15.687,1.174,31.961-10.857,37.252-32.569
						c5.292-21.711-2.83-42.242-18.092-46.056C461.934,212.689,459.493,230.926,454.203,252.638z"/>
					
						<ellipse transform="matrix(-0.9716 -0.2368 0.2368 -0.9716 868.2934 621.2974)" fill="#133956" cx="471.454" cy="258.51" rx="28.483" ry="40.463"/>
				</g>
			</g>
		</g>
		<path fill="none" stroke="#020202" stroke-width="2" stroke-miterlimit="10" d="M679,305c0,0-32.333,1.701-31.666,7.851
			s15.828,7.634,15.828,7.634s-22.495,3.85-25.162,17.183"/>
		<path fill="none" stroke="#020202" stroke-width="2" stroke-miterlimit="10" d="M535.614,560.03c0,0,21.882-8.659,36.428-9.293"/>
		<path fill="none" stroke="#020202" stroke-width="2" stroke-miterlimit="10" d="M615.221,299.382l-2.186,9.758l-7.685-2.968
			c0,0,5.984,18.463,13.317,14.312S626,309.14,626,309.14l2.667-17.86"/>
		<path fill="none" stroke="#020202" stroke-width="2" stroke-miterlimit="10" d="M640.667,291.28L638,317
			c0,0-6.457,13.069-15.127,0"/>
		<line fill="none" stroke="#020202" stroke-width="2" stroke-miterlimit="10" x1="651" y1="291" x2="651" y2="310"/>
		<path fill="none" stroke="#020202" stroke-width="2" stroke-miterlimit="10" d="M638,317c0,0,9.357,8.763,13,0"/>
		<polygon fill="#FA0C2B" points="590.498,334.682 640.667,362.923 622.873,395.522 569.993,360.766 		"/>
		<path fill="none" stroke="#020202" stroke-width="2" stroke-miterlimit="10" d="M986.666,614.378c0,0,48.18,1.956,52.423,11.289
			s4.243,9.333,4.243,9.333"/>
		<path fill="none" stroke="#020202" stroke-width="2" stroke-miterlimit="10" d="M1047.391,635c0,0,3.423-9.956,13.516-10.311
			s47.76,5.155,47.76,5.155"/>
	</g>
</g>
</svg>
